# xmcd CD database file
#
# Track frame offsets:
#	30587
#	56209
#	85542
#	103335
#	126941
#	130587
#	154668
#	177854
#	204931
#	230627
#
# Disc length: 3509 seconds
#
# Revision: 0
# Processed by: cddbd v1.5.2PL0 Copyright (c) Steve Scherf et al.
# Submitted via: CDex 1.51
#
DISCID=8a0c1e0a
DTITLE=Jazul - That...
DYEAR=2009
DGENRE=Jazz
TTITLE0=Pamela
TTITLE1=König von Deutschland
TTITLE2=Zone Sheet
TTITLE3=Fragilidad
TTITLE4=Interlude
TTITLE5=Big Mama
TTITLE6=Lossmer My Roo
TTITLE7=That...!
TTITLE8=Keepin up
TTITLE9=I will haim
EXTD=YEAR: 2009
EXTT0=
EXTT1=
EXTT2=
EXTT3=
EXTT4=
EXTT5=
EXTT6=
EXTT7=
EXTT8=
EXTT9=
PLAYORDER=
